<svg width="143" height="126" viewBox="0 0 143 126" fill="none" xmlns="http://www.w3.org/2000/svg">
<path d="M135.338 6.47678C135.338 4.93371 135.338 3.13347 135.849 1.5904C136.104 0.0473393 138.914 0.0473393 139.169 1.5904C139.425 3.13347 139.425 4.67653 139.68 6.2196C139.68 7.24831 139.68 8.01984 139.68 9.04855C139.68 9.5629 139.68 10.0773 139.425 10.5916C139.169 10.8488 138.914 11.106 138.658 11.3631C139.169 11.106 139.169 10.8488 138.914 11.3631C138.403 12.3919 136.871 12.3919 136.615 11.3631V11.106C136.104 10.5916 136.104 10.0773 136.104 9.30573C135.338 8.53419 135.338 7.50549 135.338 6.47678Z" fill="#E5E5E5"/>
<path d="M139.68 27.5652C139.68 26.7937 140.702 26.7937 140.957 27.5652C141.212 32.1944 142.489 36.8236 142.489 41.4528C142.489 44.2818 138.148 44.2818 138.148 41.4528C138.148 36.8236 139.169 32.1944 139.68 27.5652Z" fill="#E5E5E5"/>
<path d="M137.892 57.1407C137.637 56.1119 139.169 55.0832 139.935 56.3691C140.957 58.6837 141.723 60.9983 141.978 63.5701C142.234 65.8847 142.745 68.1993 141.723 70.2567C141.212 71.285 139.68 71.285 139.169 70.2567C138.148 68.7136 138.403 66.913 138.403 65.1131C138.403 62.2842 138.148 59.7124 137.892 57.1407Z" fill="#E5E5E5"/>
<path d="M138.403 92.374C139.425 89.8022 140.191 87.4876 140.446 84.9158C140.701 83.3728 143 83.3728 143 84.9158C143 87.2304 143 89.545 142.745 91.6025C142.489 93.917 141.978 97.0032 140.191 98.5458C139.425 99.3174 137.637 99.0606 137.381 97.7743C136.871 95.7173 137.637 94.1742 138.403 92.374Z" fill="#E5E5E5"/>
<path d="M122.824 111.662C124.101 110.634 126.144 110.891 127.677 110.376C129.72 109.862 131.252 108.576 132.018 106.519C132.529 105.232 134.572 106.262 134.061 107.29C133.295 109.862 131.763 111.662 129.72 112.948C127.677 113.977 124.612 115.263 122.569 113.72C122.058 113.205 122.058 112.177 122.824 111.662Z" fill="#E5E5E5"/>
<path d="M97.5403 114.491C100.605 111.662 105.713 112.434 109.544 112.691C111.331 112.691 111.331 115.263 109.544 115.52C107.756 115.52 105.968 115.777 104.18 116.034C102.393 116.292 100.35 117.063 98.5619 116.806C97.5403 116.806 96.5188 115.52 97.5403 114.491Z" fill="#E5E5E5"/>
<path d="M69.9585 113.977C74.3002 111.405 80.4291 112.177 85.0262 113.977C86.8139 114.748 86.0477 117.32 84.26 116.805C79.663 115.777 75.3213 116.805 70.7243 117.062C68.9365 117.321 68.4261 114.748 69.9585 113.977Z" fill="#E5E5E5"/>
<path d="M44.1634 112.691C48.2493 111.405 52.8471 112.177 56.933 112.434C58.9761 112.434 58.9761 115.52 56.933 115.52C52.8471 115.777 47.9943 116.549 44.1634 115.263C42.6311 115.006 42.6311 113.205 44.1634 112.691Z" fill="#E5E5E5"/>
<path d="M19.9012 111.662C21.6894 109.863 23.9879 110.634 26.2864 110.891C28.8399 111.148 31.3943 111.662 33.9478 112.434C35.7359 113.205 35.2251 116.034 33.1816 115.52C30.6281 114.749 28.0738 114.492 25.5203 114.492C23.4771 114.492 21.6894 115.006 20.157 113.463C19.3909 113.205 19.3909 112.177 19.9012 111.662Z" fill="#E5E5E5"/>
<path d="M2.02402 109.862C7.89802 108.319 11.9847 103.432 17.6029 101.118C19.646 100.346 20.6676 103.432 19.1352 104.718C15.3044 107.29 11.9847 110.89 7.89803 113.462C9.43038 114.749 10.9627 116.034 12.7509 117.32C14.5382 118.606 17.3479 119.12 18.6249 120.92C19.3911 121.949 19.646 123.492 18.6249 124.521C13.772 128.893 4.06715 118.349 1.00245 115.005C-0.785702 113.205 -0.0195293 110.377 2.02402 109.862Z" fill="#E5E5E5"/>
</svg>
