<svg width="68" height="68" viewBox="0 0 68 68" fill="none" xmlns="http://www.w3.org/2000/svg">
<g clip-path="url(#clip0_51_174)">
<path d="M24.0418 18.9377L22.8918 19.3545C21.1169 19.9981 19.7927 21.5507 19.4358 23.4075L19.0456 25.4523C18.8509 26.4651 19.116 27.5024 19.7733 28.2978C20.4309 29.094 21.4004 29.5506 22.4329 29.5506H32.4014C33.4259 29.5506 34.3905 29.1 35.048 28.3143C35.7049 27.5292 35.9782 26.5014 35.7978 25.4943L35.4339 23.4603C35.0967 21.5742 33.7682 19.9964 31.9664 19.3425L30.7472 18.9007V17.1037C30.7472 17.0533 30.7423 17.0041 30.735 16.9556C31.6245 16.0501 32.1339 14.8154 32.1339 13.5521V10.8747C32.1339 8.2612 30.0076 6.13501 27.394 6.13501C24.7804 6.13501 22.6536 8.2612 22.6536 10.8747V13.6355C22.6536 14.9341 23.1891 16.1197 24.0502 16.9807C24.0451 17.0211 24.0418 17.0619 24.0418 17.1036V18.9377ZM33.4725 23.8109L33.8364 25.8452C33.9127 26.2703 33.7973 26.7042 33.5198 27.0357C33.242 27.3677 32.8342 27.5583 32.4011 27.5583H22.4326C21.9963 27.5583 21.5867 27.3655 21.3089 27.0291C21.0316 26.6933 20.9196 26.2557 21.002 25.8271L21.3922 23.7823C21.617 22.612 22.4519 21.633 23.5703 21.2276L24.3236 20.9546C24.3425 20.974 24.3615 20.9935 24.3819 21.0115C25.2403 21.762 26.317 22.1373 27.3944 22.1372C28.4704 22.1372 29.5469 21.7627 30.4054 21.0136C30.4363 20.9866 30.4647 20.9575 30.4918 20.9273L31.2864 21.2153C32.4225 21.6273 33.26 22.6218 33.4725 23.8109ZM24.6458 10.8747C24.6458 9.35983 25.8785 8.1272 27.3936 8.1272C28.6723 8.1272 29.7467 9.00642 30.0518 10.1911C29.9238 10.2537 29.7924 10.3128 29.6579 10.3665C28.4331 10.8569 27.4438 10.7918 27.161 10.5937C26.7105 10.2778 26.0895 10.3867 25.7735 10.8372C25.4577 11.2877 25.5667 11.9088 26.0171 12.2247C26.5036 12.5659 27.1639 12.7365 27.9175 12.7365C28.6022 12.7365 29.3639 12.5942 30.1415 12.3128V13.5518C30.1415 14.3132 29.8266 15.0588 29.2774 15.5974C29.0232 15.8468 28.7319 16.04 28.4192 16.1734C28.3972 16.1817 28.3757 16.1908 28.3546 16.2006C28.0333 16.3277 27.6901 16.3916 27.3394 16.3824C25.854 16.3539 24.6458 15.1215 24.6458 13.6353V10.8747ZM27.3011 18.3745C27.3316 18.375 27.3617 18.3753 27.3921 18.3753C27.8595 18.3753 28.3174 18.305 28.7549 18.1702V19.7638C27.9247 20.2757 26.8634 20.2754 26.0342 19.763V18.1731C26.4372 18.2952 26.8618 18.366 27.3011 18.3745V18.3745Z" fill="#EA6628"/>
<path d="M11.7225 46.6045H42.7436C43.2938 46.6045 43.7396 46.1586 43.7396 45.6084C43.7396 45.0582 43.2938 44.6123 42.7436 44.6123H11.7225C11.1723 44.6123 10.7264 45.0582 10.7264 45.6084C10.7264 46.1586 11.1723 46.6045 11.7225 46.6045V46.6045Z" fill="#EA6628"/>
<path d="M11.7225 51.9756H42.7436C43.2938 51.9756 43.7396 51.5297 43.7396 50.9795C43.7396 50.4292 43.2938 49.9834 42.7436 49.9834H11.7225C11.1723 49.9834 10.7264 50.4292 10.7264 50.9795C10.7264 51.5297 11.1723 51.9756 11.7225 51.9756V51.9756Z" fill="#EA6628"/>
<path d="M11.7225 57.3464H42.7436C43.2938 57.3464 43.7396 56.9006 43.7396 56.3503C43.7396 55.8001 43.2938 55.3542 42.7436 55.3542H11.7225C11.1723 55.3542 10.7264 55.8001 10.7264 56.3503C10.7264 56.9006 11.1723 57.3464 11.7225 57.3464V57.3464Z" fill="#EA6628"/>
<path d="M11.7225 62.7175H42.7436C43.2938 62.7175 43.7396 62.2717 43.7396 61.7214C43.7396 61.1712 43.2938 60.7253 42.7436 60.7253H11.7225C11.1723 60.7253 10.7264 61.1712 10.7264 61.7214C10.7264 62.2717 11.1723 62.7175 11.7225 62.7175V62.7175Z" fill="#EA6628"/>
<path d="M10.7264 34.8665C10.7264 35.4167 11.1723 35.8625 11.7225 35.8625H42.7436C43.2938 35.8625 43.7396 35.4167 43.7396 34.8665C43.7396 34.3162 43.2938 33.8704 42.7436 33.8704H11.7225C11.1723 33.8704 10.7264 34.3163 10.7264 34.8665V34.8665Z" fill="#EA6628"/>
<path d="M11.7225 41.2336H42.7436C43.2938 41.2336 43.7396 40.7878 43.7396 40.2375C43.7396 39.6873 43.2938 39.2415 42.7436 39.2415H11.7225C11.1723 39.2415 10.7264 39.6873 10.7264 40.2375C10.7264 40.7878 11.1723 41.2336 11.7225 41.2336V41.2336Z" fill="#EA6628"/>
<path d="M8.04437 46.6083C8.5966 46.6083 9.04431 46.1607 9.04431 45.6085C9.04431 45.0564 8.5966 44.6086 8.04437 44.6086C7.49213 44.6086 7.04456 45.0562 7.04456 45.6085C7.04456 46.1607 7.49227 46.6083 8.04437 46.6083Z" fill="#EA6628"/>
<path d="M8.04437 35.8663C8.5966 35.8663 9.04431 35.4187 9.04431 34.8665C9.04431 34.3143 8.5966 33.8667 8.04437 33.8667C7.49213 33.8667 7.04456 34.3143 7.04456 34.8665C7.04456 35.4187 7.49227 35.8663 8.04437 35.8663Z" fill="#EA6628"/>
<path d="M8.04437 41.2374C8.5966 41.2374 9.04431 40.7898 9.04431 40.2376C9.04431 39.6854 8.5966 39.2378 8.04437 39.2378C7.49213 39.2378 7.04456 39.6854 7.04456 40.2376C7.04456 40.7898 7.49227 41.2374 8.04437 41.2374Z" fill="#EA6628"/>
<path d="M8.04437 51.9791C8.5966 51.9791 9.04431 51.5315 9.04431 50.9793C9.04431 50.4271 8.5966 49.9795 8.04437 49.9795C7.49213 49.9795 7.04456 50.4271 7.04456 50.9793C7.04456 51.5315 7.49227 51.9791 8.04437 51.9791Z" fill="#EA6628"/>
<path d="M8.04437 57.3502C8.5966 57.3502 9.04431 56.9026 9.04431 56.3504C9.04431 55.7982 8.5966 55.3506 8.04437 55.3506C7.49213 55.3506 7.04456 55.7982 7.04456 56.3504C7.04456 56.9025 7.49227 57.3502 8.04437 57.3502Z" fill="#EA6628"/>
<path d="M8.04437 62.7211C8.5966 62.7211 9.04431 62.2735 9.04431 61.7212C9.04431 61.1691 8.5966 60.7214 8.04437 60.7214C7.49213 60.7214 7.04456 61.169 7.04456 61.7212C7.04456 62.2733 7.49227 62.7211 8.04437 62.7211Z" fill="#EA6628"/>
<path d="M64.4977 15.6879C64.0958 15.1793 63.7159 14.6986 63.5322 14.2558C63.3341 13.7778 63.256 13.1463 63.1734 12.4775C63.0285 11.3058 62.8643 9.9778 61.9376 9.05117C61.0108 8.12454 59.6827 7.96038 58.511 7.81548C57.842 7.73288 57.2102 7.65478 56.7322 7.45663C56.2893 7.27295 55.8088 6.89337 55.3 6.49134C54.5999 5.93818 53.83 5.33083 52.9197 5.05524V4.75389C52.9199 2.1327 50.787 0 48.1654 0H6.66897C4.04739 0 1.91455 2.1327 1.91455 4.75402V8.59881C1.91455 9.14906 2.3604 9.59491 2.91064 9.59491C3.46089 9.59491 3.90674 9.14906 3.90674 8.59881V4.75402C3.90674 3.23106 5.14588 1.99219 6.66897 1.99219H48.1654C49.6885 1.99219 50.9277 3.23106 50.9277 4.75402V5.05551C50.0176 5.33123 49.248 5.93831 48.5479 6.49148C48.0391 6.89337 47.5586 7.27308 47.1158 7.45676C46.6378 7.65478 46.006 7.73288 45.3371 7.81562C44.1654 7.96038 42.8374 8.12454 41.9105 9.05117C40.9836 9.97794 40.8194 11.3059 40.6745 12.4776C40.5919 13.1463 40.5138 13.778 40.3157 14.256C40.132 14.6988 39.7523 15.1794 39.3503 15.6881C38.606 16.6299 37.7626 17.6973 37.7626 19.0638C37.7626 20.4303 38.6061 21.4977 39.3503 22.4395C39.7522 22.9481 40.132 23.4288 40.3157 23.8716C40.5138 24.3496 40.5919 24.9811 40.6745 25.6501C40.8194 26.8216 40.9836 28.1496 41.9104 29.0762C42.8371 30.003 44.1653 30.167 45.3369 30.3119C45.6862 30.3551 46.0248 30.3975 46.3373 30.4559V45.5125C46.3373 46.1025 46.6666 46.6295 47.197 46.8877C47.7272 47.1463 48.3451 47.0807 48.8101 46.7167L50.9275 45.0588V63.2461C50.9275 64.7691 49.6884 66.0079 48.1653 66.0079H6.66897C5.14588 66.0079 3.90674 64.7691 3.90674 63.2461V12.9852C3.90674 12.435 3.46089 11.9891 2.91064 11.9891C2.3604 11.9891 1.91455 12.435 1.91455 12.9852V63.246C1.91455 65.8673 4.04739 68 6.66897 68H48.1654C50.787 68 52.9199 65.8673 52.9199 63.246V45.0586L55.0373 46.7164C55.3137 46.9329 55.6444 47.0439 55.9788 47.0439C56.2067 47.0439 56.4362 46.9923 56.6514 46.8875C57.1818 46.6293 57.5115 46.1023 57.5115 45.5123V34.3963C57.5115 33.8461 57.0656 33.4002 56.5154 33.4002C55.9651 33.4002 55.5193 33.8461 55.5193 34.3963V44.5638L52.8714 42.4907C52.6038 42.2789 52.2672 42.1621 51.9236 42.1621C51.58 42.1621 51.2435 42.2789 50.9801 42.4872L48.3293 44.5627V31.4641C48.4016 31.5207 48.4742 31.5779 48.5478 31.6359C49.4897 32.3802 50.5573 33.2234 51.9239 33.2234C53.2904 33.2234 54.358 32.3801 55.2999 31.6361C55.8087 31.2342 56.2893 30.8543 56.7321 30.6707C57.2101 30.4726 57.8419 30.3945 58.5109 30.3118C59.6825 30.167 61.0105 30.0029 61.9376 29.0762C62.8642 28.1495 63.0283 26.8215 63.1732 25.6499C63.256 24.9811 63.3341 24.3494 63.5322 23.8715C63.7159 23.4287 64.0956 22.948 64.4977 22.4393C65.2419 21.4976 66.0853 20.4301 66.0853 19.0636C66.0853 17.6971 65.2418 16.6297 64.4977 15.6879V15.6879ZM62.9346 21.2042C62.466 21.7972 61.9815 22.4103 61.6921 23.1083C61.3902 23.8361 61.2916 24.6339 61.1962 25.4054C61.0805 26.3412 60.9713 27.2251 60.5291 27.6674C60.0867 28.1096 59.2027 28.2188 58.2668 28.3345C57.4951 28.4298 56.6974 28.5284 55.9694 28.8303C55.2713 29.1197 54.6582 29.604 54.0652 30.0726C53.311 30.6683 52.5987 31.2311 51.9242 31.2311C51.2496 31.2311 50.5373 30.6684 49.7831 30.0726C49.1901 29.6042 48.577 29.1197 47.879 28.8303C47.8309 28.8104 47.6641 28.7469 47.6281 28.7357C46.9697 28.5067 46.2654 28.419 45.5814 28.3345C44.6455 28.2188 43.7615 28.1095 43.3191 27.6672C42.877 27.2251 42.7677 26.3412 42.652 25.4056C42.5566 24.6339 42.4581 23.8364 42.1562 23.1083C41.8667 22.4103 41.3823 21.7972 40.9137 21.2042C40.3181 20.4501 39.7552 19.7379 39.7552 19.0636C39.7552 18.3894 40.3179 17.6772 40.9137 16.9231C41.3823 16.3301 41.8668 15.717 42.1562 15.019C42.4581 14.2912 42.5568 13.4934 42.652 12.7218C42.7677 11.786 42.877 10.9022 43.3192 10.4599C43.7616 10.0176 44.6456 9.90848 45.5816 9.7928C46.3532 9.69744 47.1509 9.59889 47.879 9.29701C48.577 9.00761 49.1901 8.52324 49.7831 8.05468C50.5357 7.46008 51.2468 6.89855 51.9202 6.89642C51.9214 6.89642 51.9227 6.89655 51.9239 6.89655C51.9252 6.89655 51.9266 6.89642 51.9279 6.89642C52.6014 6.89841 53.3125 7.46008 54.0652 8.05468C54.6582 8.52311 55.2713 9.00761 55.9694 9.29701C56.6973 9.59889 57.4952 9.69757 58.2669 9.7928C59.2028 9.90848 60.0868 10.0178 60.5291 10.46C60.9713 10.9023 61.0807 11.786 61.1963 12.7218C61.2917 13.4934 61.3902 14.291 61.6921 15.019C61.9817 15.717 62.466 16.3301 62.9346 16.9231C63.5302 17.6772 64.0931 18.3894 64.0931 19.0636C64.0931 19.7379 63.5304 20.4502 62.9346 21.2042V21.2042Z" fill="#EA6628"/>
<path d="M58.319 15.8982L54.9294 14.9391L52.9694 12.0119C52.7353 11.6624 52.3446 11.4539 51.9239 11.4539C51.5033 11.4539 51.1125 11.6625 50.8784 12.0119L48.9185 14.9391L45.5286 15.8983C45.1238 16.0129 44.8045 16.3204 44.6746 16.7204C44.5447 17.1204 44.6226 17.5567 44.8826 17.8869L47.0611 20.6551L46.9259 24.1742C46.9096 24.5947 47.103 24.9934 47.4434 25.2409C47.6619 25.3996 47.9207 25.4817 48.1825 25.4817C48.3288 25.4817 48.476 25.456 48.6173 25.404L51.9237 24.1877L55.2298 25.4038C55.6246 25.5494 56.0633 25.4883 56.4037 25.2411C56.7441 24.994 56.9377 24.5954 56.9215 24.1748L56.7863 20.655L58.965 17.8868C59.225 17.5562 59.3027 17.1202 59.1727 16.7201C59.0432 16.3201 58.7239 16.0128 58.319 15.8982V15.8982ZM55.0535 19.6359C54.8695 19.8702 54.7742 20.1632 54.7855 20.4619L54.8888 23.1558L52.3584 22.225C52.078 22.1218 51.7692 22.1219 51.4894 22.2248L48.9586 23.1558L49.0621 20.4609C49.0733 20.1633 48.9779 19.8703 48.7934 19.6352L47.1261 17.5166L49.7211 16.7826C50.0081 16.7011 50.2577 16.5197 50.4236 16.2719L51.9237 14.0314L53.4237 16.2716C53.5897 16.5196 53.8392 16.701 54.1268 16.7827L56.7213 17.5166L55.0535 19.6359Z" fill="#EA6628"/>
</g>
<defs>
<clipPath id="clip0_51_174">
<rect width="68" height="68" fill="white"/>
</clipPath>
</defs>
</svg>
