<svg width="37" height="148" viewBox="0 0 37 148" fill="none" xmlns="http://www.w3.org/2000/svg">
<path d="M2.45247 94.3268C3.80695 94.3268 4.90497 93.2288 4.90497 91.8743C4.90497 90.5198 3.80695 89.4218 2.45247 89.4218C1.098 89.4218 0 90.5198 0 91.8743C0 93.2288 1.098 94.3268 2.45247 94.3268Z" fill="black"/>
<path d="M18.0164 94.3268C19.3709 94.3268 20.4689 93.2288 20.4689 91.8743C20.4689 90.5198 19.3709 89.4218 18.0164 89.4218C16.662 89.4218 15.564 90.5198 15.564 91.8743C15.564 93.2288 16.662 94.3268 18.0164 94.3268Z" fill="black"/>
<path d="M33.5802 94.3268C34.9346 94.3268 36.0327 93.2288 36.0327 91.8743C36.0327 90.5198 34.9346 89.4218 33.5802 89.4218C32.2257 89.4218 31.1277 90.5198 31.1277 91.8743C31.1277 93.2288 32.2257 94.3268 33.5802 94.3268Z" fill="black"/>
<path d="M2.45247 75.9802C3.80695 75.9802 4.90497 74.8822 4.90497 73.5277C4.90497 72.1732 3.80695 71.0752 2.45247 71.0752C1.098 71.0752 0 72.1732 0 73.5277C0 74.8822 1.098 75.9802 2.45247 75.9802Z" fill="black"/>
<path d="M18.0164 75.9802C19.3709 75.9802 20.4689 74.8822 20.4689 73.5277C20.4689 72.1732 19.3709 71.0752 18.0164 71.0752C16.662 71.0752 15.564 72.1732 15.564 73.5277C15.564 74.8822 16.662 75.9802 18.0164 75.9802Z" fill="black"/>
<path d="M33.5802 75.9802C34.9346 75.9802 36.0327 74.8822 36.0327 73.5277C36.0327 72.1732 34.9346 71.0752 33.5802 71.0752C32.2257 71.0752 31.1277 72.1732 31.1277 73.5277C31.1277 74.8822 32.2257 75.9802 33.5802 75.9802Z" fill="black"/>
<path d="M2.45247 59.9447C3.80695 59.9447 4.90497 58.8466 4.90497 57.4922C4.90497 56.1377 3.80695 55.0397 2.45247 55.0397C1.098 55.0397 0 56.1377 0 57.4922C0 58.8466 1.098 59.9447 2.45247 59.9447Z" fill="black"/>
<path d="M18.0164 59.9447C19.3709 59.9447 20.4689 58.8466 20.4689 57.4922C20.4689 56.1377 19.3709 55.0397 18.0164 55.0397C16.662 55.0397 15.564 56.1377 15.564 57.4922C15.564 58.8466 16.662 59.9447 18.0164 59.9447Z" fill="black"/>
<path d="M33.5802 59.9447C34.9346 59.9447 36.0327 58.8466 36.0327 57.4922C36.0327 56.1377 34.9346 55.0397 33.5802 55.0397C32.2257 55.0397 31.1277 56.1377 31.1277 57.4922C31.1277 58.8466 32.2257 59.9447 33.5802 59.9447Z" fill="black"/>
<path d="M2.45247 147.539C3.80695 147.539 4.90497 146.441 4.90497 145.087C4.90497 143.732 3.80695 142.634 2.45247 142.634C1.098 142.634 0 143.732 0 145.087C0 146.441 1.098 147.539 2.45247 147.539Z" fill="black"/>
<path d="M18.0164 147.539C19.3709 147.539 20.4689 146.441 20.4689 145.087C20.4689 143.732 19.3709 142.634 18.0164 142.634C16.662 142.634 15.564 143.732 15.564 145.087C15.564 146.441 16.662 147.539 18.0164 147.539Z" fill="black"/>
<path d="M33.5802 147.539C34.9346 147.539 36.0327 146.441 36.0327 145.087C36.0327 143.732 34.9346 142.634 33.5802 142.634C32.2257 142.634 31.1277 143.732 31.1277 145.087C31.1277 146.441 32.2257 147.539 33.5802 147.539Z" fill="black"/>
<path d="M2.45247 129.193C3.80695 129.193 4.90497 128.095 4.90497 126.74C4.90497 125.386 3.80695 124.288 2.45247 124.288C1.098 124.288 0 125.386 0 126.74C0 128.095 1.098 129.193 2.45247 129.193Z" fill="black"/>
<path d="M18.0164 129.193C19.3709 129.193 20.4689 128.095 20.4689 126.74C20.4689 125.386 19.3709 124.288 18.0164 124.288C16.662 124.288 15.564 125.386 15.564 126.74C15.564 128.095 16.662 129.193 18.0164 129.193Z" fill="black"/>
<path d="M33.5802 129.193C34.9346 129.193 36.0327 128.095 36.0327 126.74C36.0327 125.386 34.9346 124.288 33.5802 124.288C32.2257 124.288 31.1277 125.386 31.1277 126.74C31.1277 128.095 32.2257 129.193 33.5802 129.193Z" fill="black"/>
<path d="M2.45247 113.157C3.80695 113.157 4.90497 112.059 4.90497 110.705C4.90497 109.35 3.80695 108.252 2.45247 108.252C1.098 108.252 0 109.35 0 110.705C0 112.059 1.098 113.157 2.45247 113.157Z" fill="black"/>
<path d="M18.0164 113.157C19.3709 113.157 20.4689 112.059 20.4689 110.705C20.4689 109.35 19.3709 108.252 18.0164 108.252C16.662 108.252 15.564 109.35 15.564 110.705C15.564 112.059 16.662 113.157 18.0164 113.157Z" fill="black"/>
<path d="M33.5802 113.157C34.9346 113.157 36.0327 112.059 36.0327 110.705C36.0327 109.35 34.9346 108.252 33.5802 108.252C32.2257 108.252 31.1277 109.35 31.1277 110.705C31.1277 112.059 32.2257 113.157 33.5802 113.157Z" fill="black"/>
<path d="M2.45247 41.5982C3.80695 41.5982 4.90497 40.5001 4.90497 39.1457C4.90497 37.7912 3.80695 36.6932 2.45247 36.6932C1.098 36.6932 0 37.7912 0 39.1457C0 40.5001 1.098 41.5982 2.45247 41.5982Z" fill="black"/>
<path d="M18.0164 41.5982C19.3709 41.5982 20.4689 40.5001 20.4689 39.1457C20.4689 37.7912 19.3709 36.6932 18.0164 36.6932C16.662 36.6932 15.564 37.7912 15.564 39.1457C15.564 40.5001 16.662 41.5982 18.0164 41.5982Z" fill="black"/>
<path d="M33.5802 41.5982C34.9346 41.5982 36.0327 40.5001 36.0327 39.1457C36.0327 37.7912 34.9346 36.6932 33.5802 36.6932C32.2257 36.6932 31.1277 37.7912 31.1277 39.1457C31.1277 40.5001 32.2257 41.5982 33.5802 41.5982Z" fill="black"/>
<path d="M2.45247 23.2515C3.80695 23.2515 4.90497 22.1535 4.90497 20.799C4.90497 19.4445 3.80695 18.3465 2.45247 18.3465C1.098 18.3465 0 19.4445 0 20.799C0 22.1535 1.098 23.2515 2.45247 23.2515Z" fill="black"/>
<path d="M18.0164 23.2515C19.3709 23.2515 20.4689 22.1535 20.4689 20.799C20.4689 19.4445 19.3709 18.3465 18.0164 18.3465C16.662 18.3465 15.564 19.4445 15.564 20.799C15.564 22.1535 16.662 23.2515 18.0164 23.2515Z" fill="black"/>
<path d="M33.5802 23.2515C34.9346 23.2515 36.0327 22.1535 36.0327 20.799C36.0327 19.4445 34.9346 18.3465 33.5802 18.3465C32.2257 18.3465 31.1277 19.4445 31.1277 20.799C31.1277 22.1535 32.2257 23.2515 33.5802 23.2515Z" fill="black"/>
<path d="M2.45247 4.90505C3.80695 4.90505 4.90497 3.80703 4.90497 2.45255C4.90497 1.09808 3.80695 6.10352e-05 2.45247 6.10352e-05C1.098 6.10352e-05 0 1.09808 0 2.45255C0 3.80703 1.098 4.90505 2.45247 4.90505Z" fill="black"/>
<path d="M18.0164 4.90499C19.3709 4.90499 20.4689 3.80697 20.4689 2.45249C20.4689 1.09802 19.3709 0 18.0164 0C16.662 0 15.564 1.09802 15.564 2.45249C15.564 3.80697 16.662 4.90499 18.0164 4.90499Z" fill="black"/>
<path d="M33.5802 4.90499C34.9346 4.90499 36.0327 3.80697 36.0327 2.45249C36.0327 1.09802 34.9346 0 33.5802 0C32.2257 0 31.1277 1.09802 31.1277 2.45249C31.1277 3.80697 32.2257 4.90499 33.5802 4.90499Z" fill="black"/>
</svg>
