<svg width="21" height="21" viewBox="0 0 21 21" fill="none" xmlns="http://www.w3.org/2000/svg">
<g clip-path="url(#clip0_172_2713)">
<path d="M12.4239 10.5165L20.6009 2.33931C21.1331 1.80742 21.1331 0.947418 20.6009 0.415523C20.069 -0.116372 19.209 -0.116372 18.6771 0.415523L10.4999 8.59276L2.3229 0.415523C1.79076 -0.116372 0.931004 -0.116372 0.399108 0.415523C-0.133036 0.947418 -0.133036 1.80742 0.399108 2.33931L8.5761 10.5165L0.399108 18.6938C-0.133036 19.2257 -0.133036 20.0857 0.399108 20.6176C0.664184 20.8829 1.01272 21.0162 1.361 21.0162C1.70929 21.0162 2.05758 20.8829 2.3229 20.6176L10.4999 12.4403L18.6771 20.6176C18.9424 20.8829 19.2907 21.0162 19.639 21.0162C19.9873 21.0162 20.3356 20.8829 20.6009 20.6176C21.1331 20.0857 21.1331 19.2257 20.6009 18.6938L12.4239 10.5165Z" fill="#4C858B"/>
</g>
<defs>
<clipPath id="clip0_172_2713">
<rect width="21" height="21" fill="white"/>
</clipPath>
</defs>
</svg>
