<svg width="37" height="77" viewBox="0 0 37 77" fill="none" xmlns="http://www.w3.org/2000/svg">
<path d="M3.39321 58.241C4.74111 58.241 5.83381 57.1483 5.83381 55.8004C5.83381 54.4525 4.74111 53.3598 3.39321 53.3598C2.0453 53.3598 0.952637 54.4525 0.952637 55.8004C0.952637 57.1483 2.0453 58.241 3.39321 58.241Z" fill="black"/>
<path d="M18.8815 58.241C20.2294 58.241 21.3221 57.1483 21.3221 55.8004C21.3221 54.4525 20.2294 53.3598 18.8815 53.3598C17.5336 53.3598 16.4409 54.4525 16.4409 55.8004C16.4409 57.1483 17.5336 58.241 18.8815 58.241Z" fill="black"/>
<path d="M34.3698 58.241C35.7177 58.241 36.8104 57.1483 36.8104 55.8004C36.8104 54.4525 35.7177 53.3598 34.3698 53.3598C33.0219 53.3598 31.9292 54.4525 31.9292 55.8004C31.9292 57.1483 33.0219 58.241 34.3698 58.241Z" fill="black"/>
<path d="M3.39321 39.9835C4.74111 39.9835 5.83381 38.8908 5.83381 37.5429C5.83381 36.195 4.74111 35.1023 3.39321 35.1023C2.0453 35.1023 0.952637 36.195 0.952637 37.5429C0.952637 38.8908 2.0453 39.9835 3.39321 39.9835Z" fill="black"/>
<path d="M18.8815 39.9835C20.2294 39.9835 21.3221 38.8908 21.3221 37.5429C21.3221 36.195 20.2294 35.1023 18.8815 35.1023C17.5336 35.1023 16.4409 36.195 16.4409 37.5429C16.4409 38.8908 17.5336 39.9835 18.8815 39.9835Z" fill="black"/>
<path d="M34.3698 39.9835C35.7177 39.9835 36.8104 38.8908 36.8104 37.5429C36.8104 36.195 35.7177 35.1023 34.3698 35.1023C33.0219 35.1023 31.9292 36.195 31.9292 37.5429C31.9292 38.8908 33.0219 39.9835 34.3698 39.9835Z" fill="black"/>
<path d="M3.39321 24.0258C4.74111 24.0258 5.83381 22.9331 5.83381 21.5852C5.83381 20.2373 4.74111 19.1446 3.39321 19.1446C2.0453 19.1446 0.952637 20.2373 0.952637 21.5852C0.952637 22.9331 2.0453 24.0258 3.39321 24.0258Z" fill="black"/>
<path d="M18.8815 24.0258C20.2294 24.0258 21.3221 22.9331 21.3221 21.5852C21.3221 20.2373 20.2294 19.1446 18.8815 19.1446C17.5336 19.1446 16.4409 20.2373 16.4409 21.5852C16.4409 22.9331 17.5336 24.0258 18.8815 24.0258Z" fill="black"/>
<path d="M34.3698 24.0258C35.7177 24.0258 36.8104 22.9331 36.8104 21.5852C36.8104 20.2373 35.7177 19.1446 34.3698 19.1446C33.0219 19.1446 31.9292 20.2373 31.9292 21.5852C31.9292 22.9331 33.0219 24.0258 34.3698 24.0258Z" fill="black"/>
<path d="M3.39321 76.9801C4.74111 76.9801 5.83381 75.8874 5.83381 74.5395C5.83381 73.1916 4.74111 72.0989 3.39321 72.0989C2.0453 72.0989 0.952637 73.1916 0.952637 74.5395C0.952637 75.8874 2.0453 76.9801 3.39321 76.9801Z" fill="black"/>
<path d="M18.8815 76.9801C20.2294 76.9801 21.3221 75.8874 21.3221 74.5395C21.3221 73.1916 20.2294 72.0989 18.8815 72.0989C17.5336 72.0989 16.4409 73.1916 16.4409 74.5395C16.4409 75.8874 17.5336 76.9801 18.8815 76.9801Z" fill="black"/>
<path d="M34.3698 76.9801C35.7177 76.9801 36.8104 75.8874 36.8104 74.5395C36.8104 73.1916 35.7177 72.0989 34.3698 72.0989C33.0219 72.0989 31.9292 73.1916 31.9292 74.5395C31.9292 75.8874 33.0219 76.9801 34.3698 76.9801Z" fill="black"/>
<path d="M3.39321 5.76828C4.74111 5.76828 5.83381 4.67558 5.83381 3.32768C5.83381 1.97977 4.74111 0.887085 3.39321 0.887085C2.0453 0.887085 0.952637 1.97977 0.952637 3.32768C0.952637 4.67558 2.0453 5.76828 3.39321 5.76828Z" fill="black"/>
<path d="M18.8815 5.76828C20.2294 5.76828 21.3221 4.67558 21.3221 3.32768C21.3221 1.97977 20.2294 0.887085 18.8815 0.887085C17.5336 0.887085 16.4409 1.97977 16.4409 3.32768C16.4409 4.67558 17.5336 5.76828 18.8815 5.76828Z" fill="black"/>
<path d="M34.3698 5.76828C35.7177 5.76828 36.8104 4.67558 36.8104 3.32768C36.8104 1.97977 35.7177 0.887085 34.3698 0.887085C33.0219 0.887085 31.9292 1.97977 31.9292 3.32768C31.9292 4.67558 33.0219 5.76828 34.3698 5.76828Z" fill="black"/>
</svg>
